#!OML:ASF X:\für Bonn\!DataBase\2005_08_11_Bastian_Final\c3d\Bastian.ASF
:FULLY-SPECIFIED
:DEGREES
160
root -1.20789 16.0009 -23.1 161.78 -4.00608 -178.612
lowerback 10.6761 -5.74681 -2.99751
upperback 9.07647 -9.30585 0.658476
thorax 4.17843 -5.44222 2.88734
lowerneck -10.2565 -0.100938 -7.9405
upperneck -2.59396 1.06359 10.4385
head 0.818934 0.940708 4.49378
rclavicle 1.49983e-013 -5.64548e-014
rhumerus -50.7099 10.4556 -100.75
rradius 108.276
rwrist 14.3081
rhand -20.8525 9.47754
rfingers 7.12502
rthumb 5.51676 -20.4306
lclavicle 1.49983e-013 -5.64548e-014
lhumerus 0.366089 -46.6956 80.5221
lradius 119.41
lwrist 38.7463
lhand -4.8312 -11.7561
lfingers 7.12502
lthumb 20.9556 17.1318
rfemur -27.7286 10.5477 26.6288
rtibia 43.6472
rfoot -173.31 -173.777
rtoes -6.00194
lfemur 26.586 3.30472 -17.1012
ltibia 46.3115
lfoot -18.5184 -6.07289
ltoes -24.0204
161
root -1.17446 15.9901 -22.8495 161.91 -4.07994 -178.637
lowerback 11.5231 -5.47482 -3.16327
upperback 9.32208 -9.06093 0.522171
thorax 3.96728 -5.36389 2.91608
lowerneck -10.7069 -0.413155 -7.5427
upperneck -3.09878 0.73209 10.7707
head 0.777707 0.817544 4.52214
rclavicle -1.72197e-014 -1.0138e-014
rhumerus -50.2451 10.7107 -101.169
rradius 108.346
rwrist 14.4306
rhand -21.1631 9.68847
rfingers 7.12502
rthumb 5.21689 -20.2273
lclavicle -1.72197e-014 -1.0138e-014
lhumerus 0.347906 -46.7411 80.9114
lradius 118.804
lwrist 38.8633
lhand -4.36391 -11.7967
lfingers 7.12502
lthumb 21.4045 17.041
rfemur -28.1694 10.9815 26.0392
rtibia 42.7571
rfoot -173.541 -174.349
rtoes -10.3187
lfemur 25.8221 3.37812 -17.1418
ltibia 45.9848
lfoot -19.7188 -6.1729
ltoes -22.5298
162
root -1.14226 15.9762 -22.5939 161.975 -4.05255 -178.712
lowerback 12.4876 -5.13452 -3.37732
upperback 9.57242 -8.74994 0.39929
thorax 3.70479 -5.26016 2.99005
lowerneck -11.1977 -0.713829 -7.0852
upperneck -3.55103 0.409613 11.0483
head 0.756786 0.699375 4.52372
rclavicle -1.18277e-014 9.54166e-015
rhumerus -49.8185 11.188 -101.471
rradius 108.456
rwrist 14.3536
rhand -21.406 9.92518
rfingers 7.12502
rthumb 4.98231 -19.9962
lclavicle -1.18277e-014 9.54166e-015
lhumerus 0.246107 -46.7869 81.3907
lradius 118.186
lwrist 39.0331
lhand -3.99567 -11.8895
lfingers 7.12502
lthumb 21.7581 16.9076
rfemur -28.5631 11.2488 25.4366
rtibia 42.0018
rfoot -173.862 -175.071
rtoes -13.9458
lfemur 25.0404 3.61994 -17.124
ltibia 45.8336
lfoot -20.8382 -6.39732
ltoes -20.8277
163
root -1.11292 15.9563 -22.3319 161.987 -3.85124 -178.856
lowerback 13.5977 -4.70529 -3.61682
upperback 9.8085 -8.34514 0.283732
thorax 3.34887 -5.11357 3.09062
lowerneck -11.7491 -1.01688 -6.58254
upperneck -3.95179 0.0766167 11.2488
head 0.759581 0.576612 4.49307
rclavicle 1.5294e-014 -1.10325e-014
rhumerus -49.3718 11.9055 -101.649
rradius 108.561
rwrist 14.0572
rhand -21.6117 10.211
rfingers 7.12502
rthumb 4.78369 -19.715
lclavicle 1.5294e-014 -1.10325e-014
lhumerus 0.113561 -46.8814 81.887
lradius 117.607
lwrist 39.2678
lhand -3.71637 -11.9822
lfingers 7.12502
lthumb 22.0263 16.7835
rfemur -28.9096 11.3435 24.8865
rtibia 41.4113
rfoot -174.443 -175.855
rtoes -18.0619
lfemur 24.2458 4.11163 -17.031
ltibia 45.8667
lfoot -21.9055 -6.83282
ltoes -18.8351
164
root -1.08614 15.9316 -22.0628 161.952 -3.45433 -179.074
lowerback 14.8543 -4.20392 -3.89993
upperback 10.0032 -7.86899 0.166147
thorax 2.87366 -4.93184 3.21658
lowerneck -12.228 -1.28229 -6.02907
upperneck -4.37216 -0.216717 11.3811
head 0.738924 0.468761 4.43286
rclavicle -3.60507e-014 1.82789e-014
rhumerus -48.9503 12.8584 -101.749
rradius 108.65
rwrist 13.5907
rhand -21.7628 10.5652
rfingers 7.12502
rthumb 4.63784 -19.364
lclavicle -3.60507e-014 1.82789e-014
lhumerus -0.22551 -46.9527 82.494
lradius 117.146
lwrist 39.522
lhand -3.58258 -12.1045
lfingers 7.12502
lthumb 22.1548 16.6461
rfemur -29.195 10.9462 24.4875
rtibia 41.0159
rfoot -174.973 -176.486
rtoes -21.1604
lfemur 23.4395 4.83486 -16.8869
ltibia 46.0769
lfoot -23.0044 -7.56014
ltoes -16.261
165
root -1.05738 15.9038 -21.7894 161.944 -2.88738 -179.299
lowerback 16.1389 -3.6322 -4.16505
upperback 10.1498 -7.30615 0.0507999
thorax 2.32559 -4.69988 3.31792
lowerneck -12.687 -1.53701 -5.42601
upperneck -4.74483 -0.510405 11.502
head 0.726816 0.359249 4.36001
rclavicle 8.71795e-014 -1.87852e-014
rhumerus -48.6269 13.894 -101.78
rradius 108.797
rwrist 12.9412
rhand -21.8216 11.0251
rfingers 7.12502
rthumb 4.58107 -18.9054
lclavicle 8.71795e-014 -1.87852e-014
lhumerus -0.711124 -47.0302 83.1404
lradius 116.897
lwrist 39.8248
lhand -3.49201 -12.075
lfingers 7.12502
lthumb 22.2417 16.6652
rfemur -29.4781 10.1656 24.3317
rtibia 40.8293
rfoot -175.201 -177.354
rtoes -22.5424
lfemur 22.5371 5.7731 -16.6041
ltibia 46.4806
lfoot -24.1045 -8.49814
ltoes -13.7885
166
root -1.02662 15.8753 -21.5157 161.945 -2.24116 -179.548
lowerback 17.3497 -3.00993 -4.47397
upperback 10.3412 -6.70784 -0.0580889
thorax 1.87083 -4.46089 3.41485
lowerneck -13.2536 -1.78335 -4.76389
upperneck -5.10672 -0.795045 11.5684
head 0.730146 0.258497 4.26084
rclavicle -2.96189e-014 8.15017e-015
rhumerus -48.2012 15.0628 -101.71
rradius 108.973
rwrist 12.2032
rhand -21.8275 11.4489
rfingers 7.12502
rthumb 4.57529 -18.4817
lclavicle -2.96189e-014 8.15017e-015
lhumerus -1.02136 -47.0255 83.5943
lradius 116.771
lwrist 40.1524
lhand -3.46532 -12.0122
lfingers 7.12502
lthumb 22.2673 16.7249
rfemur -29.7402 8.92751 24.3898
rtibia 40.8553
rfoot -175.433 -178.234
rtoes -23.9157
lfemur 21.533 6.81903 -16.2695
ltibia 47.0639
lfoot -25.128 -9.51484
ltoes -11.9001
